<svg xmlns="http://www.w3.org/2000/svg" xmlns:svg="http://www.w3.org/2000/svg" id="svg316" width="1000" height="1000" version="1.1" viewBox="0 0 1000 1000"><g id="g322"><path style="display:inline;opacity:1;fill:#ff2654;fill-opacity:1;fill-rule:nonzero;stroke-width:.7;stroke-dasharray:none" id="path21271" d="M 43.442873,500 C 44.729355,381.57807 94.612705,264.40544 179.08104,181.39635 263.54937,98.387264 381.57364,50.553165 500,51.331533 617.43261,52.10337 733.85918,100.6317 817.07592,183.49296 900.29266,266.35423 949.31889,382.57178 950.59458,500 951.88811,619.07066 904.01174,737.93437 820.54876,822.86626 737.08578,907.79814 619.07511,957.74081 500,958.52344 379.93115,959.3126 260.30587,910.07147 175.5853,824.98577 90.86473,739.90007 42.138548,620.06436 43.442873,500 Z"/><path style="display:inline;opacity:1;fill:#161616;fill-opacity:1;fill-rule:nonzero;stroke-width:7;stroke-dasharray:none" id="path21495" d="M 810.53125,500 C 809.3521,419.22061 775.44998,339.38827 718.14176,282.4456 660.83353,225.50293 580.78531,192.11226 500,191.45312 418.36315,190.78703 336.94829,223.58389 278.56844,280.65237 220.18858,337.72085 185.55094,418.36913 184.35937,500 183.14556,583.1542 216.70905,666.27439 275.32351,725.26964 333.93798,784.2649 416.83971,818.36602 500,817.6875 582.30875,817.01593 663.82438,782.31258 721.36031,723.45004 778.89624,664.5875 811.73263,582.30273 810.53125,500 Z"/><path style="display:inline;opacity:1;fill:#ff2654;fill-opacity:1;fill-rule:nonzero;stroke-width:7;stroke-dasharray:none" id="path21275" d="M 759.34429,500 C 758.19835,432.60151 729.83099,366.05221 681.99531,318.55888 634.15963,271.06554 567.40514,243.17636 500,242.53125 431.75952,241.87814 363.66577,269.1855 314.77936,316.80177 265.89296,364.41804 236.80347,431.76626 235.64333,500 234.45795,569.71803 262.50003,639.47618 311.6155,688.97042 360.73098,738.46466 430.27509,767.04231 500,766.375 568.88957,765.71568 637.07217,736.5466 685.12903,687.18319 733.18589,637.81977 760.51546,568.88277 759.34429,500 Z"/><path style="display:inline;opacity:1;fill:#161616;fill-opacity:1;fill-rule:nonzero;stroke-width:7;stroke-dasharray:none" id="path21499" d="m 425.88442,448.01182 c -0.0883,28.34345 0.0296,84.32273 0.31267,112.73951 0.2831,28.41677 0.73019,29.26962 1.17791,30.12367 0,0 1.625,2.25 1.625,2.25 0,0 2.0625,1 2.0625,1 0,0 6.1875,0.625 6.1875,0.625 48.08333,-27.91667 96.16698,-55.83352 120.646,-70.22927 24.47902,-14.39575 25.354,-15.27073 25.9164,-16.08294 0.56241,-0.81221 0.8124,-1.56219 0.91669,-2.43698 0.10429,-0.87479 0.0626,-1.87477 -0.16633,-2.89553 -0.22895,-1.02076 -0.64561,-2.0624 -1.16617,-2.87503 -0.52057,-0.81263 -1.14556,-1.39595 -1.66634,-1.83354 -0.52079,-0.43759 -0.93744,-0.72924 -24.80769,-14.62209 -23.87026,-13.89285 -71.19225,-41.38567 -95.50189,-55.36818 -24.30965,-13.98252 -25.60599,-14.45391 -26.90262,-14.51314 -1.29664,-0.0592 -2.59298,0.29431 -3.74228,0.82467 -1.1493,0.53036 -2.15101,1.23745 -2.82884,1.85636 -0.67782,0.61891 -1.03137,1.14923 -1.35549,1.76809 -0.32412,0.61886 -0.61874,1.32595 -0.70702,29.6694 z"/></g></svg>