<svg xmlns="http://www.w3.org/2000/svg" xmlns:xlink="http://www.w3.org/1999/xlink" width="100%" height="100%" version="1.1" viewBox="0 0 34 34" xml:space="preserve" style="fill-rule:evenodd;clip-rule:evenodd;stroke-linejoin:round;stroke-miterlimit:2"><g><g><path d="M620.408,312.185C621.766,309.468 624.28,307.794 627,307.794C629.72,307.794 632.234,309.468 633.592,312.185C643.701,332.402 662.969,370.939 673.563,392.126C675.098,395.195 675.096,398.975 673.558,402.043C672.021,405.111 669.181,407 666.107,407C645.499,407 608.501,407 587.893,407C584.819,407 581.979,405.111 580.442,402.043C578.904,398.975 578.902,395.195 580.437,392.126C591.031,370.939 610.299,332.402 620.408,312.185Z" style="fill:#fff" transform="matrix(-0.13004,0,0,0.13004,130.354,-21.1046) matrix(7.11542e-17,1.16204,-1.00804,6.1725e-17,1181.95,-435.575)"/></g><g><path d="M620.408,312.185C621.766,309.468 624.28,307.794 627,307.794C629.72,307.794 632.234,309.468 633.592,312.185C643.701,332.402 662.969,370.939 673.563,392.126C675.098,395.195 675.096,398.975 673.558,402.043C672.021,405.111 669.181,407 666.107,407C645.499,407 608.501,407 587.893,407C584.819,407 581.979,405.111 580.442,402.043C578.904,398.975 578.902,395.195 580.437,392.126C591.031,370.939 610.299,332.402 620.408,312.185Z" style="fill:#fff" transform="matrix(-0.13004,0,0,0.13004,130.354,-21.1046) matrix(7.11542e-17,1.16204,-1.00804,6.1725e-17,1281.96,-435.575)"/></g></g></svg>