<svg xmlns="http://www.w3.org/2000/svg" xmlns:xlink="http://www.w3.org/1999/xlink" width="100%" height="100%" version="1.1" viewBox="0 0 34 34" xml:space="preserve" style="fill-rule:evenodd;clip-rule:evenodd;stroke-linejoin:round;stroke-miterlimit:2"><g><path d="M621.069,310.862C622.291,308.417 624.553,306.911 627,306.911C629.447,306.911 631.709,308.417 632.931,310.862C643.071,331.141 663.672,372.343 674.309,393.619C675.69,396.38 675.688,399.781 674.305,402.541C672.922,405.3 670.367,407 667.602,407C646.846,407 607.154,407 586.398,407C583.633,407 581.078,405.3 579.695,402.541C578.312,399.781 578.31,396.38 579.691,393.619C590.328,372.343 610.929,331.141 621.069,310.862Z" transform="matrix(1.19618e-17,0.195351,-0.169464,1.03767e-17,78.491,-105.485)" style="fill:#fff"/></g></svg>